HIERARCHY
ROOT Pelvis
{
	OFFSET 0.000000 0.000000 0.000000
	CHANNELS 6 Xposition Yposition Zposition Zrotation Yrotation Xrotation 
	JOINT Left_hip
	{
		OFFSET 0.076090 -0.089427 -0.010735
		CHANNELS 3 Zrotation Yrotation Xrotation
		JOINT Left_knee
		{
			OFFSET 0.030200 -0.359518 -0.003501
			CHANNELS 3 Zrotation Yrotation Xrotation
			JOINT Left_ankle
			{
				OFFSET -0.011005 -0.371022 -0.045888
				CHANNELS 3 Zrotation Yrotation Xrotation
				JOINT Left_foot
				{
					OFFSET 0.023930 -0.052103 0.111084
					CHANNELS 3 Zrotation Yrotation Xrotation
					End Site
					{
						OFFSET 0.000000 0.000000 0.000000
					}
				}
			}
		}
	}
	JOINT Right_hip
	{
		OFFSET -0.073836 -0.088112 -0.007709
		CHANNELS 3 Zrotation Yrotation Xrotation
		JOINT Right_knee
		{
			OFFSET -0.035715 -0.367809 -0.006536
			CHANNELS 3 Zrotation Yrotation Xrotation
			JOINT Right_ankle
			{
				OFFSET 0.013718 -0.371958 -0.043815
				CHANNELS 3 Zrotation Yrotation Xrotation
				JOINT Right_foot
				{
					OFFSET -0.021936 -0.046387 0.114542
					CHANNELS 3 Zrotation Yrotation Xrotation
					End Site
					{
						OFFSET 0.000000 0.000000 0.000000
					}
				}
			}
		}
	}
	JOINT Spine1
	{
		OFFSET -0.001865 0.102064 -0.019455
		CHANNELS 3 Zrotation Yrotation Xrotation
		JOINT Spine2
		{
			OFFSET 0.003082 0.129260 -0.001938
			CHANNELS 3 Zrotation Yrotation Xrotation
			JOINT Spine3
			{
				OFFSET 0.001104 0.048093 0.026561
				CHANNELS 3 Zrotation Yrotation Xrotation
				JOINT Neck
				{
					OFFSET -0.002010 0.204222 -0.047183
					CHANNELS 3 Zrotation Yrotation Xrotation
					JOINT Head
					{
						OFFSET 0.005050 0.063649 0.048489
						CHANNELS 3 Zrotation Yrotation Xrotation
						End Site
						{
							OFFSET 0.000000 0.000000 0.000000
						}
					}
				}
				JOINT Left_collar
				{
					OFFSET 0.072979 0.114065 -0.031633
					CHANNELS 3 Zrotation Yrotation Xrotation
					JOINT Left_shoulder
					{
						OFFSET 0.083419 0.032092 -0.006530
						CHANNELS 3 Zrotation Yrotation Xrotation
						JOINT Left_elbow
						{
							OFFSET 0.239393 -0.012014 -0.025060
							CHANNELS 3 Zrotation Yrotation Xrotation
							JOINT Left_wrist
							{
								OFFSET 0.227297 0.008116 0.000384
								CHANNELS 3 Zrotation Yrotation Xrotation
								JOINT Left_palm
								{
									OFFSET 0.074607 -0.009248 -0.012277
									CHANNELS 3 Zrotation Yrotation Xrotation
									End Site
									{
										OFFSET 0.000000 0.000000 0.000000
									}
								}
							}
						}
					}
				}
				JOINT Right_collar
				{
					OFFSET -0.074980 0.111880 -0.037894
					CHANNELS 3 Zrotation Yrotation Xrotation
					JOINT Right_shoulder
					{
						OFFSET -0.087565 0.034353 -0.009323
						CHANNELS 3 Zrotation Yrotation Xrotation
						JOINT Right_elbow
						{
							OFFSET -0.236838 -0.013719 -0.019794
							CHANNELS 3 Zrotation Yrotation Xrotation
							JOINT Right_wrist
							{
								OFFSET -0.235053 0.006433 -0.003853
								CHANNELS 3 Zrotation Yrotation Xrotation
								JOINT Right_palm
								{
									OFFSET -0.075499 -0.006894 -0.009792
									CHANNELS 3 Zrotation Yrotation Xrotation
									End Site
									{
										OFFSET 0.000000 0.000000 0.000000
									}
								}
							}
						}
					}
				}
			}
		}
	}
}
MOTION
Frames: 16
Frame Time: 0.100000
0.087838 0.059976 -0.322723 171.451705 29.779789 -10.924964 -0.178610 3.818348 -1.253541 -4.462332 -4.333751 -6.587474 -3.742575 9.477516 -2.124646 10.650908 7.324870 -11.139280 1.847270 0.805937 -4.068948 -0.445132 1.374661 15.927636 7.604634 -8.538618 -10.926696 -12.250628 -2.031873 -3.732561 0.736367 -1.704144 7.048563 -0.403213 -1.294723 -5.633157 1.388331 -3.382572 4.882329 -2.318708 -5.217388 0.411799 0.378678 3.087379 3.631008 -11.409178 13.726680 1.715771 -66.460126 -7.096696 3.671660 41.843390 -47.768465 -39.550451 18.893624 9.529543 -53.449154 -13.650006 0.624202 -5.314162 3.032854 -11.520480 -3.710246 61.580283 1.953803 12.833308 -113.627927 48.658080 -112.088497 -16.799532 -3.738214 -81.281096 12.849583 1.939817 0.778102 
0.087849 0.059142 -0.321729 171.243424 30.400840 -11.170983 -0.118129 3.781170 -0.997228 -4.332702 -4.547694 -6.771268 -3.772300 9.121941 -1.895558 10.441279 7.358643 -11.035045 2.136379 0.490069 -3.386208 -0.674524 0.801392 15.121092 7.283234 -8.707911 -10.729356 -11.768879 -2.252500 -3.492547 0.661252 -1.607946 6.858416 -0.345811 -1.496382 -5.568924 1.440936 -3.475912 4.804578 -2.254718 -5.309396 0.641762 0.494145 3.001048 3.446878 -11.480003 13.525300 1.776010 -66.652774 -7.396171 3.797628 41.762436 -47.957625 -39.237269 18.912187 9.512676 -53.659154 -13.618148 0.622096 -5.174820 2.998899 -11.575373 -3.792340 61.915805 2.022059 12.935560 -115.543261 48.006191 -113.394985 -17.092478 -3.816120 -81.671746 12.923841 1.999826 1.018795 
0.088105 0.058672 -0.319765 171.112633 30.202383 -11.113618 0.131652 3.736624 -0.919572 -4.284928 -4.344852 -7.023267 -3.937280 9.140148 -1.894857 10.671263 7.245511 -10.705690 2.138000 0.226670 -2.402596 -0.410988 0.886932 13.183010 7.430467 -8.221957 -10.361909 -11.744240 -2.529532 -3.342190 0.607534 -1.290634 6.346182 -0.385656 -1.439703 -5.436352 1.523140 -3.260642 4.655199 -1.965157 -5.611425 0.287089 0.867658 2.837763 3.017201 -11.688358 13.459869 1.675055 -66.712648 -6.820404 3.908443 42.035313 -48.042346 -39.432062 18.729442 9.211395 -53.101597 -13.972087 0.494442 -5.598879 2.843770 -11.180293 -3.877107 61.599202 2.537249 12.989596 -116.836871 48.013466 -114.191366 -16.543952 -3.335379 -81.157363 12.965165 2.093228 0.851298 
0.088841 0.058656 -0.317277 171.283823 29.808424 -10.875761 0.272909 3.731187 -0.797975 -4.358535 -4.134918 -7.318934 -3.957070 9.196453 -1.964261 10.704061 7.188183 -10.345888 1.975486 -0.139367 -1.266495 -0.149238 0.969166 10.891906 7.508089 -7.735223 -10.080191 -11.552483 -2.750051 -3.109907 0.498743 -0.875659 5.923620 -0.601665 -1.251303 -5.493488 1.484491 -3.001567 4.462351 -1.774809 -6.019899 0.090171 1.164579 2.589771 2.893661 -11.973245 13.651249 1.446254 -66.373839 -6.313174 3.849399 41.994368 -47.852634 -39.733091 18.494491 8.911023 -52.433228 -14.278022 0.458359 -5.958334 2.871801 -10.941000 -3.963284 61.278889 2.765147 13.128599 -117.547450 48.245755 -114.958333 -15.854868 -2.743025 -81.205507 12.918727 2.086564 0.768093 
0.090044 0.058164 -0.314816 171.391844 29.533730 -10.855394 0.363019 3.727968 -0.617193 -4.287274 -3.948544 -7.377471 -3.966737 9.281233 -2.003901 10.739361 7.195554 -10.154280 2.041075 -0.433076 -0.106000 -0.101027 1.079519 8.916218 7.660318 -7.536083 -9.731017 -11.674235 -2.819153 -3.024104 0.404777 -0.567722 5.582467 -0.731005 -1.174146 -5.335866 1.479561 -2.833544 4.408935 -1.698331 -6.558207 -0.087017 1.497874 2.155912 2.603083 -12.166572 13.807657 1.393320 -66.331878 -5.886099 3.833808 41.908939 -47.927601 -39.765046 18.439707 8.861261 -51.866189 -14.516300 0.340462 -6.261037 2.897920 -10.803992 -3.896773 61.374741 2.498281 13.178977 -117.776986 48.488394 -115.295495 -15.589367 -2.659699 -81.159673 13.106278 2.166648 0.526423 
0.091107 0.057806 -0.312079 171.501803 29.177176 -10.826439 0.474290 3.779339 -0.343546 -4.242003 -3.745331 -7.554305 -3.969753 9.423990 -2.087535 10.761287 7.093988 -9.958007 2.084279 -0.521336 0.752367 -0.041716 1.265013 7.545499 7.789207 -7.311839 -9.488987 -11.753067 -2.918846 -2.940538 0.323672 -0.437600 5.249094 -0.700556 -1.217774 -5.153196 1.526277 -2.790391 4.336122 -1.585882 -6.981154 -0.338480 1.760897 1.763943 2.118547 -12.381202 13.891962 1.484003 -66.404084 -5.411631 3.928960 41.501960 -48.112704 -39.396463 18.535894 8.845620 -51.548149 -14.751442 0.192774 -6.543655 3.060425 -10.774074 -3.838498 61.371648 2.295567 13.146003 -117.597955 48.671974 -115.211592 -15.711099 -2.801607 -80.897322 13.392904 2.294196 0.241288 
0.092284 0.057749 -0.310183 171.684153 28.667768 -10.673811 0.534264 3.862221 -0.275653 -4.230009 -3.393614 -7.589579 -3.861304 9.470959 -2.175582 10.616401 7.089517 -9.768483 2.049696 -0.628370 1.396002 0.039812 1.431293 6.273375 7.920121 -6.991344 -9.239787 -11.812779 -3.013758 -2.881227 0.252146 -0.318848 5.072685 -0.629834 -1.355468 -5.099902 1.596105 -2.815722 4.209801 -1.384035 -7.471577 -0.819114 2.125586 1.340170 1.475305 -12.647737 13.772592 1.496952 -66.637887 -5.327669 3.979571 40.977910 -47.968196 -38.966307 18.654101 8.919433 -51.161324 -14.978769 -0.011944 -6.645005 3.270817 -10.706890 -3.875864 61.523884 2.185784 13.124936 -117.607475 48.625457 -115.073747 -15.978314 -3.034171 -80.122780 13.750108 2.534879 -0.039778 
0.093272 0.057779 -0.307962 171.985043 27.837162 -10.373032 0.592682 4.000949 -0.160435 -4.287178 -2.912565 -7.816042 -3.815781 9.577310 -2.208687 10.614313 7.109524 -9.590032 1.925499 -0.731305 2.102531 0.152434 1.668032 4.674534 8.144179 -6.560787 -8.879520 -11.961172 -3.168205 -2.837460 0.196252 -0.201541 4.752136 -0.594665 -1.493465 -4.990398 1.681235 -2.819083 4.034320 -1.084872 -8.039204 -1.459215 2.676366 0.990521 0.662851 -12.866083 13.465001 1.524584 -66.889123 -5.290097 4.170420 40.350214 -47.871935 -38.596744 18.549593 8.777027 -50.787506 -15.214927 -0.134542 -6.841026 3.265981 -10.524297 -3.803549 61.716176 1.931501 13.192275 -118.004191 48.742290 -115.462753 -15.784246 -2.982982 -80.066096 13.932387 2.669932 -0.309215 
0.094176 0.057814 -0.306017 172.250735 26.781521 -10.107553 0.738210 4.120275 -0.041357 -4.393197 -2.220243 -8.005315 -3.803487 9.700780 -2.294118 10.671948 7.186652 -9.380571 1.731047 -0.841022 3.120460 0.368878 2.053365 2.454660 8.539130 -5.899717 -8.209656 -12.225429 -3.415173 -2.837045 0.186630 -0.053858 4.275622 -0.494158 -1.690819 -4.575265 1.874899 -2.800100 3.895649 -0.836811 -8.333788 -1.989139 3.228710 1.086208 -0.522192 -13.130880 12.996361 1.545906 -67.432904 -5.221646 4.486139 40.252584 -47.928955 -38.702397 18.472161 8.665251 -50.238281 -15.540559 -0.380530 -7.114893 3.160750 -10.231204 -3.690416 61.784772 1.906030 13.168159 -118.175066 48.833334 -115.625442 -15.469169 -2.980652 -79.421593 14.237246 2.919189 -0.788683 
0.095229 0.057830 -0.304306 172.568191 25.823902 -9.679809 0.865423 4.263698 -0.019554 -4.551483 -1.540537 -8.371138 -4.010315 9.805101 -2.245831 10.973786 7.109985 -9.219698 1.344324 -1.041572 4.225861 0.748510 2.391259 -0.265890 9.182103 -5.223465 -7.346437 -12.745330 -3.486846 -2.703112 0.243109 0.107569 3.758597 -0.417535 -1.958309 -4.483354 1.967894 -2.810908 3.822170 -0.917573 -8.111711 -2.326528 3.364909 1.328380 -0.975191 -13.273095 12.655131 1.459696 -67.680754 -5.147568 4.799485 39.991985 -47.954652 -38.740826 18.580017 8.472735 -49.538637 -16.054268 -0.648416 -7.463752 3.228652 -10.258772 -3.727150 61.749772 1.821748 13.108527 -118.227411 48.639652 -115.825540 -15.314646 -3.032545 -78.920421 14.709622 3.193187 -1.315818 
0.097145 0.057916 -0.302986 172.837630 25.019012 -9.314596 1.000229 4.313857 -0.113655 -4.672030 -0.936812 -8.571969 -4.085452 9.934181 -2.214917 11.093032 7.060382 -9.065456 1.029073 -1.163661 5.083415 1.116323 2.677171 -2.505692 9.639917 -4.615813 -6.529495 -12.943305 -3.662757 -2.551942 0.270127 0.269431 3.373466 -0.334681 -2.166005 -4.367930 2.063148 -2.812541 3.773507 -0.996644 -7.736067 -2.493775 3.495671 1.763012 -1.505225 -13.347438 12.430747 1.325052 -67.722161 -5.259639 5.005030 40.186731 -48.046374 -39.054205 18.502727 8.207018 -49.026814 -16.404605 -0.840215 -7.637161 3.270051 -10.476312 -3.715587 61.613125 1.667174 12.934942 -118.284358 48.426545 -115.871116 -14.953858 -2.933474 -78.608303 15.034280 3.408242 -1.676372 
0.099585 0.057547 -0.302083 173.012083 24.317898 -9.178847 1.107270 4.413000 -0.135086 -4.630915 -0.433065 -8.600160 -4.264412 10.132307 -2.198208 11.396118 7.095148 -9.014483 0.843703 -1.114159 5.668332 1.443532 3.007393 -3.862708 10.089446 -4.291099 -5.884618 -13.304458 -3.645742 -2.539509 0.344108 0.313786 3.161980 -0.217508 -2.342558 -4.164439 2.163912 -2.844728 3.800484 -0.966216 -7.291870 -2.603572 3.537602 2.199480 -1.822854 -13.358597 12.210148 1.328041 -67.673343 -5.151420 5.139366 40.150938 -48.144481 -39.268975 18.566552 8.015069 -48.433891 -16.639902 -1.028692 -7.952292 3.280949 -10.535112 -3.695662 61.495995 1.577100 12.957632 -118.265006 48.447354 -116.037645 -14.835740 -2.981347 -78.277767 15.297490 3.571176 -2.059299 
0.101444 0.057908 -0.301860 173.379366 23.651477 -9.122762 0.999275 4.666232 -0.060755 -4.685569 -0.053322 -8.483134 -4.227182 10.236843 -2.331682 11.417433 7.238346 -9.021069 0.585477 -0.995238 5.894535 1.485468 3.326658 -4.232612 10.323260 -3.975270 -5.765303 -13.443955 -3.725727 -2.660571 0.445490 0.298775 3.142050 -0.164237 -2.391918 -3.955394 2.180443 -2.850707 3.805608 -0.934127 -7.045604 -2.621954 3.417386 2.476564 -2.139650 -13.419920 12.148679 1.366913 -67.682253 -4.913213 5.186307 39.843161 -48.332775 -38.769057 18.397299 7.722211 -47.692519 -16.743024 -1.102325 -8.262745 3.301225 -10.543960 -3.717269 61.502971 1.633108 12.981507 -118.273703 48.505584 -116.116474 -14.701977 -2.935956 -77.818715 15.438626 3.655236 -2.317083 
0.102430 0.058097 -0.303255 174.070672 22.643353 -9.611590 0.221750 5.071292 -0.192312 -4.291275 0.332821 -6.582547 -3.655704 10.529431 -3.104192 11.078507 8.103940 -9.510050 0.406844 -0.388441 5.390270 0.769473 4.396409 -1.963353 10.628577 -4.179162 -6.577223 -14.303410 -3.378497 -3.624674 0.836225 0.121289 3.799641 -0.330376 -2.185503 -3.301957 2.052845 -2.764302 3.931091 -0.980846 -6.730883 -3.123113 3.007442 3.241540 -3.361473 -13.356202 11.611324 1.614161 -67.813824 -4.629730 4.939544 38.695015 -48.507096 -37.196870 18.001457 7.811649 -46.645115 -16.565398 -1.163019 -8.627581 2.777271 -9.880398 -3.562865 61.730763 1.492459 12.955237 -117.934680 48.714209 -116.348026 -14.824997 -3.352919 -77.489358 15.721564 3.721600 -2.793385 
0.099553 0.060881 -0.312815 175.597823 21.341297 -11.689017 -1.826946 3.420069 -5.901313 -2.848382 1.227250 9.381379 -2.306710 10.843115 -7.267630 10.218241 11.420471 -11.821266 -0.816379 -0.396756 5.653322 0.017808 6.102094 2.498236 12.545642 -5.352987 -8.504910 -18.267019 -1.381908 -6.635255 1.615984 0.549069 7.633519 -0.939768 -2.318737 -2.656497 1.730229 -2.816726 4.795672 -1.058205 -4.865598 -5.960943 1.759716 5.404151 -5.402778 -13.075679 9.851867 2.102074 -68.401255 -5.057915 4.181650 36.837099 -48.956645 -34.007615 16.043259 7.873724 -45.781709 -15.183130 -1.269567 -7.684659 1.404365 -8.396320 -3.748448 61.829704 1.150614 12.492341 -117.239544 48.962540 -116.753984 -14.866009 -4.989369 -76.383554 16.458683 4.201542 -3.310069 
0.087423 0.062416 -0.315976 175.808243 18.457094 -12.249386 0.880045 -0.543981 -11.997247 -2.388412 -1.591836 23.706485 -2.013586 9.748577 -9.958631 10.361236 12.539155 -13.029761 -1.443333 -0.458837 5.089619 0.163864 7.976494 4.727937 13.269992 -5.765950 -9.304424 -19.942046 -0.396812 -8.106510 1.438049 2.029374 8.103358 -0.349141 -2.060808 -2.035110 2.251478 -2.700300 5.313978 0.947268 -4.448716 -6.832008 2.911829 5.440245 -5.927485 -13.764854 10.338610 2.609162 -69.953718 -4.912758 4.960568 35.859573 -50.611274 -32.007214 14.689231 8.563807 -48.452050 -14.542563 -1.878354 -6.559905 1.530516 -8.310269 -3.174579 60.158009 1.784900 11.606450 -114.270681 50.061099 -114.036733 -14.741705 -6.296868 -76.420614 17.088931 4.688645 -3.507505 
